<svg width="40" height="40" viewBox="0 0 40 40" fill="none" xmlns="http://www.w3.org/2000/svg">
<path d="M11 14C11 13.4477 11.4477 13 12 13H28C28.5523 13 29 13.4477 29 14C29 14.5523 28.5523 15 28 15L12 15C11.4477 15 11 14.5523 11 14Z" fill="#1E2530"/>
<path d="M11 20C11 19.4477 11.4477 19 12 19L28 19C28.5523 19 29 19.4477 29 20C29 20.5523 28.5523 21 28 21L12 21C11.4477 21 11 20.5523 11 20Z" fill="#1E2530"/>
<path d="M12 25C11.4477 25 11 25.4477 11 26C11 26.5523 11.4477 27 12 27L28 27C28.5523 27 29 26.5523 29 26C29 25.4477 28.5523 25 28 25L12 25Z" fill="#1E2530"/>
</svg>
